<svg version="1" xmlns="http://www.w3.org/2000/svg" width="682.667" height="682.667" viewBox="0 0 512.000000 512.000000"><path d="M259.7 48.6c-.4.4-.7 6.5-.7 13.6 0 9.6.3 12.8 1.3 12.8.6 0 4.1 1.4 7.5 3 3.5 1.7 6.6 3 6.8 3 .3 0 .3-7.3.2-16.3l-.3-16.2-7-.3c-3.9-.1-7.4 0-7.8.4zM237.7 68.6c-.9 1-.9 12.7.1 12.2 5.3-2.8 12.6-5.8 13.8-5.8 1.1 0 1.4-.9 1.2-3.3l-.3-3.2-7-.3c-3.9-.1-7.4 0-7.8.4z"/><path d="M280.4 69.4c-.3.7-.4 5.8-.2 11.3l.4 9.9-3.1-4c-4.4-5.7-12.5-9.8-19-9.4-4.8.3-5 .4-4.8 3 .1 1.9-.3 2.8-1.3 2.8-.8 0-1.2-.5-.9-1 .3-.6.1-1-.4-1-.6 0-1.1-.7-1.1-1.5s-.4-1.5-1-1.5c-.5 0-1 .7-1 1.6 0 1.4-.3 1.4-1.5.4-1.3-1-1.5-.9-1.6 1.1-.1 1.5-.3 1.8-.6.8-.4-1.5-.7-1.5-3.2-.3-4.4 2.2-8.2 6.4-10.9 12.2-2 4.5-2.4 6.5-2 13 .5 11.5 5.1 19.3 14.6 24.9 8.6 5.1 26.1 3.7 25.8-2-.1-1.2-.4-2.7-.8-3.2-.3-.6 1.2-3 3.4-5.4 3.2-3.7 4.5-4.5 7.3-4.4 3.3.1 3.4 0 4.4-5.1 1.8-8.8 2-9.3 1.7-3.6-.3 3-1.3 7.6-2.4 10.2-1.8 4.1-2 6.6-1.9 21l.2 16.3 7.8.3 7.7.3V140c0-8.8.2-16 .5-16 2.2 0 12.8 6.5 15.3 9.5 7.2 8.2 4.8 15.6-7 21.6-8.6 4.3-18.6 6.6-34.5 7.9-30.2 2.3-58.2-2.9-68-12.7-5.3-5.2-5.8-9.9-1.8-15.3 2.2-3 12.5-10 14.8-10 .5 0 .7 4.3.6 9.5-.2 5.7.1 9.9.7 10.5.6.6 3.9 1 7.5.8l6.4-.3.3-11.5c.2-9.7 0-12.1-1.8-16.1-2.7-6.5-2.8-18.6 0-24.8 1.4-3 2-6.5 2-11.3v-6.9l-7.7.3-7.6.3.2 22.7.2 22.6-7.2 2.3c-7.8 2.4-17.8 8.5-20.1 12.2-4.2 6.3-2.3 12.7 5.2 18.2 5.7 4.2 9 5.6 20.7 9 23.6 7 54.4 7.3 80.9 1 12.6-3 20-6.2 25.4-11.1 5.8-5.3 7.5-9.3 5.7-13.7-2.8-6.6-12.1-12.8-24.2-16.3l-6.5-1.9V68h-7.5c-5.5 0-7.7.4-8.1 1.4zM258 79.6c0 .2-.7.4-1.5.4s-1.5-.4-1.5-1c0-.5.7-.7 1.5-.4.8.4 1.5.8 1.5 1zm2.7 3c-.3.3-1.2.4-1.9.1-.8-.3-.5-.6.6-.6 1.1-.1 1.7.2 1.3.5zM283.9 98c0 1-.3.8-.9-.5-1.2-2.7-1.2-4.3 0-2.5.5.8.9 2.2.9 3zm-27.2 1.6c-.3.3-1.2.4-1.9.1-.8-.3-.5-.6.6-.6 1.1-.1 1.7.2 1.3.5zm-.4 3.8c-.4 2.1-.2 2.3 2.1 1.9 3.4-.7 3.4 1.5 0 2.3-2.6.7-9.2-.1-10.2-1.1-.4-.3 0-1 .8-1.5 1.3-.9 1.3-1 0-1-2.7-.1 2.2-3 5.1-3 2.2 0 2.6.4 2.2 2.4zm3.2-.4c.3.5-.1 1-1 1s-1.3-.5-1-1c.3-.6.8-1 1-1 .2 0 .7.4 1 1z"/><path d="M272.5 128c-.4.6-1.1.7-1.7.4-.6-.4-.8-.2-.4.4.3.5 0 1.3-.6 1.5-.8.3-.8.6-.2.6.6.1 1.9-.8 2.9-1.9 1-1.1 1.5-2 1.2-2-.3 0-.9.5-1.2 1zM237.2 142.2l.3 12.3h15l.3-8.8c.2-7.6.1-8.8-1.5-9.3-1.5-.5-10.1-4.5-13.6-6.2-.4-.2-.6 5.2-.5 12zM271.5 131.5c-1 .9-4.3 2.3-7.3 3.2l-5.3 1.7.3 4.5.3 4.6h15l.3-7.8c.2-4.2-.1-7.7-.5-7.7s-1.7.7-2.8 1.5z"/><path d="M87.5 136.2c-.3.7-.4 59.1-.3 129.8l.3 128.5 169.3.3 169.2.2V135h-79v25h54l-.2 104.7-.3 104.8-143.1.3c-114.8.2-143.3 0-144-1-.5-.8-.8-45.6-.6-105.1l.3-103.7H164v-25h-38c-29.5 0-38.2.3-38.5 1.2z"/><path d="M189.1 181.9c-6.9 2.4-9.9 4.7-13.8 10.4-5 7.4-5.5 12-5.1 47.9.3 27.6.6 33 2.1 36.9 4.1 10.6 12.8 16.7 25.1 17.6 19.9 1.5 31.5-9.7 33.2-32.2l.7-8.5H213v4.6c0 11.8-4.8 19.4-12.3 19.4-2.4 0-5.6-.8-7.3-1.9-5.4-3.3-5.9-6.2-5.9-39.1 0-26.8.2-29.8 1.9-33.3 2.1-4.2 6-6.7 10.5-6.7 7.3 0 11.3 4.9 12.6 15.3l.7 5.7H230v-5.7c0-13.2-5.9-24.1-15.5-28.8-7.5-3.7-17.7-4.4-25.4-1.6zM264.7 181.4c-11.1 3.1-17.7 11.4-19.8 24.5-1.7 11.6-.7 63.1 1.5 69.8 3.6 11.1 12.4 18.3 23.5 19.1 7.9.6 13.5-1.2 18.6-5.9 2.3-2.1 4.4-3.9 4.7-3.9.3 0 1 1.8 1.7 4 1.2 4 1.2 4 6.2 4h4.9l-.2-27.3-.3-27.2h-32l-.3 6.7c-.3 7.5-.9 7 7.3 7 7.7-.1 7.9.1 7.1 8.4-1 12.6-4.3 17.4-11.9 17.4-5.1 0-9.3-2.3-11.4-6.3-1.6-2.8-1.8-6.7-2.1-31.2-.4-33.4-.2-35.7 4.3-40.2 2.8-2.8 4-3.3 7.8-3.3 7.9 0 12.7 6.3 12.7 16.9v4.1H305.3l-.6-7.3c-1-13.9-7.4-24.2-17.4-28.4-5.1-2.1-16.8-2.6-22.6-.9zM340.5 180.9c-8.7 2.4-14.3 6.8-18.3 14.5l-2.7 5.1V237c0 36.3 0 36.5 2.4 41.8C326.5 289 336.5 295 349 295c17.1 0 27.5-9.8 29.9-28.3 1.9-13.7 2.5-12.7-7.8-12.7h-8.8l-.8 7.2c-1.1 11.6-5.1 16.8-12.9 16.8-4.9 0-7.9-1.9-10.4-6.3-1.5-2.9-1.7-6.6-1.7-34.2s.2-31.3 1.7-34.2c2.5-4.4 5.5-6.3 10.4-6.3 7.6 0 12.4 6.2 12.4 16v5H379.3l-.6-7.9c-.9-13.3-6.8-23-16.7-27.4-4.9-2.2-16.5-3.2-21.5-1.8zM137 237.5V293h17V182h-17v55.5zM134.5 305.8c-.3.3-.5 8.5-.5 18.2 0 18.2-.4 20-4.2 20-1.4 0-1.8.8-1.8 3.5 0 3.5 0 3.5 4.3 3.5 3.3 0 4.9-.6 6.5-2.3 2.1-2.2 2.2-3.2 2.2-22.4v-20.1l-3-.4c-1.7-.3-3.2-.2-3.5 0zM152.9 306.5c-4.2 2.3-5.2 5.9-5.7 19.5-.4 14.1.6 19.5 4.3 23 5.3 5 17 3 19.5-3.4.5-1.4.9-7.8 1-14.3.2-20.3.4-19.1-3.4-22.9-3-3-4-3.4-8.2-3.4-2.7.1-6.1.7-7.5 1.5zm11.1 7.4c.5 1.1 1 7.7 1 14.7 0 13.5-.9 16.4-5.1 16.4-4.2 0-4.9-2.5-4.9-16.1 0-7.2.5-13.9 1-15 .7-1.2 2.1-1.9 4-1.9s3.3.7 4 1.9zM195.8 306.3c-.8.6-2.5 4.7-3.8 9-1.3 4.2-2.6 7.4-3 7-.3-.5-1.7-4.3-3-8.6l-2.4-7.7h-8.5l1.4 3.7c.7 2.1 2.9 8.1 4.9 13.3 3.2 8.4 3.6 10.6 3.6 18.7v9.3h8v-8.9c0-8.2.4-9.8 5-22.1 2.8-7.3 4.9-13.4 4.8-13.5-1.4-1.1-5.8-1.2-7-.2zM216.3 305.6c-.7.3-1.3 1.9-1.3 3.5 0 2.6.4 2.9 3 2.9 1.7 0 3.3 0 3.7-.1 1.7-.1 2.2 4.6 2.2 21.3l.1 17.8h7l.2-19.3c.3-18.2.4-19.2 2.2-18.9 1 .2 3 .1 4.3-.3 2-.5 2.4-1.1 2.1-3.8l-.3-3.2-11-.2c-6-.1-11.6.1-12.2.3zM245.7 305.7c-.4.3-.7 10.7-.7 23V351h21.1l-.3-3.3-.3-3.2-6.7-.3-6.8-.3V331h10v-7h-10v-5.4c0-5.2.1-5.4 3.1-6 1.7-.3 4.9-.6 7-.6 3.6 0 3.9-.2 3.9-2.9 0-1.7-.6-3.1-1.6-3.5-2.1-.8-17.9-.8-18.7.1zM271.3 305.6c-1 .4-1.3 6-1.3 23V351h7l.1-14.3.1-14.2 3.5 14.2c3.1 13 3.7 14.3 5.7 14.3s2.5-1.3 5.8-14.3l3.6-14.2.1 14.2.1 14.3h7v-22.4c0-25 .5-23.5-7.2-22.8-2.1.2-3.8.9-3.8 1.6 0 .6-1.2 6.3-2.6 12.6-3 12.9-3 12.9-6.4-3.3-1.4-6.6-2.7-10.7-3.5-10.7-.7 0-2.5-.2-4.1-.5-1.6-.2-3.5-.2-4.1.1zM311.8 305.6c-1.6.5-1.8 2.5-1.8 23V351h7v-17.8l5.5-.4c6.1-.5 9-2.5 11.1-7.5 2.7-6.3.9-14.6-3.8-17.7-2.3-1.5-14.8-2.9-18-2zm14 9.2c.6.9 1.2 3 1.2 4.8 0 3.8-2.9 6.4-7.2 6.4-2.8 0-2.8-.1-2.8-6.4 0-4.2.4-6.6 1.3-6.9 1.9-.8 6.1.4 7.5 2.1zM365.7 305.7c-.4.3-.7 10.7-.7 23V351h21v-6.9l-6.7-.3-6.8-.3v-12l4.8-.3c4.6-.3 4.7-.4 4.7-3.7 0-3.3-.1-3.4-4.7-3.7l-4.8-.3-.3-5.1c-.3-5.9.4-6.4 9.1-6.4 4.5 0 4.7-.1 4.7-2.9 0-1.7-.6-3.1-1.6-3.5-2.1-.8-17.9-.8-18.7.1zM340 328.5V351h21v-7h-14v-38h-7v22.5z"/></svg>
